<svg width="91" height="47" viewBox="0 0 91 47" fill="none" xmlns="http://www.w3.org/2000/svg">
<path d="M16.5457 38.0258C17.893 37.4001 19.2378 36.6235 19.9793 35.8569L26.441 35.7499C26.7661 35.7445 28.611 37.8259 28.3093 37.8309C28.0076 37.8359 15.1985 38.6515 16.5457 38.0258Z" fill="#FDCC05" stroke="#FDCC05" stroke-width="0.301672"/>
<path d="M1.47976 40.6959L1.3542 38.7391C7.08685 38.7264 9.96317 38.6401 15.7814 35.0928C21.5996 31.5454 26.4004 21.564 26.4004 21.564C23.5701 33.9884 14.5534 40.6538 1.47976 40.6959Z" fill="#FDCC05" stroke="#FDCC05" stroke-width="0.301672"/>
<path d="M74.7637 9.90677C69.817 9.98872 66.7283 13.5599 65.8023 15.3352C65.8023 15.3352 71.225 13.6678 74.3713 13.5338C77.4406 13.4032 78.1416 13.4714 79.6548 13.748C81.1679 14.0247 77.4406 16.7152 74.5895 17.6033C71.2795 18.6345 65.8672 19.2564 65.8672 19.2564C68.3028 20.5738 73.6853 20.6434 77.495 19.9689C81.2554 19.3032 88.3115 14.208 90.1769 11.4617C87.1003 10.9093 79.7105 9.82482 74.7637 9.90677Z" fill="#FDCC05" stroke="#FDCC05" stroke-width="0.301672"/>
<path d="M58.8878 35.062C55.5133 35.3442 48.5824 32.2153 45.5388 30.6156C46.1837 30.0863 48.3436 28.7305 51.8238 27.5413C55.304 26.3521 63.5855 30.2695 67.2913 32.3769C65.8961 33.1543 62.2623 34.7798 58.8878 35.062Z" fill="#FDCC05" stroke="#FDCC05" stroke-width="0.301672"/>
<path d="M67.5394 29.0346C64.4933 29.3114 58.4587 26.7597 55.7083 25.1552C56.2897 24.6269 58.2375 23.2746 61.3775 22.091C64.5175 20.9075 74.2351 23.1344 77.584 25.2476C76.3258 26.0228 70.5854 28.7578 67.5394 29.0346Z" fill="#FDCC05" stroke="#FDCC05" stroke-width="0.301672"/>
<path d="M28.981 32.6903C27.1896 29.0994 26.853 22.769 38.4793 14.2793C39.3872 24.2811 40.1215 31.4497 28.981 32.6903Z" fill="#FDCC05" stroke="#FDCC05" stroke-width="0.301672"/>
<path d="M30.5203 35.628C33.2605 32.6963 41.3625 29.3933 51.8488 39.6355C42.7922 43.9759 33.8562 38.7723 30.5203 35.628Z" fill="#FDCC05" stroke="#FDCC05" stroke-width="0.301671"/>
<path d="M42.6714 26.7315C40.88 23.1406 41.5112 15.1347 51.9406 7.26827C55.6242 20.1809 46.7821 24.7022 42.6714 26.7315Z" fill="#FDCC05" stroke="#FDCC05" stroke-width="0.301672"/>
<path d="M56.0328 19.8722C54.2413 16.2813 52.2205 6.05652 65.302 0.408979C68.9856 13.3216 60.1435 17.8429 56.0328 19.8722Z" fill="#FDCC05" stroke="#FDCC05" stroke-width="0.301672"/>
</svg>
